<!-- Generated by IcoMoon.io -->
<svg version="1.1" xmlns="http://www.w3.org/2000/svg" width="32" height="32" viewBox="0 0 32 32">
<title>downarrow</title>
<path d="M27.991 9.379c0 0.3-0.1 0.603-0.3 0.856l-10.653 13.244c-0.253 0.311-0.635 0.509-1.064 0.509s-0.811-0.197-1.062-0.506l-0.002-0.003-10.597-13.188c-0.173-0.226-0.276-0.513-0.276-0.824 0-0.754 0.611-1.365 1.365-1.365 0.415 0 0.787 0.185 1.038 0.478l0.002 0.002 9.535 11.863 9.587-11.923c0.252-0.312 0.635-0.51 1.064-0.51 0.754 0 1.365 0.611 1.365 1.365 0 0.001 0 0.001 0 0.002v-0z"></path>
</svg>
