<!-- Generated by IcoMoon.io -->
<svg version="1.1" xmlns="http://www.w3.org/2000/svg" width="32" height="32" viewBox="0 0 32 32">
<title>trash</title>
<path d="M2 5.25v-1.75c0-0.831 0.669-1.5 1.5-1.5h7l0.588-1.169c0.25-0.512 0.769-0.831 1.338-0.831h7.144c0.569 0 1.087 0.319 1.344 0.831l0.587 1.169h7c0.831 0 1.5 0.669 1.5 1.5v1.75c0 0.412-0.337 0.75-0.75 0.75h-26.5c-0.413 0-0.75-0.338-0.75-0.75zM27.95 8.794l-1.275 20.394c-0.1 1.581-1.413 2.813-2.994 2.813h-15.363c-1.581 0-2.894-1.231-2.994-2.813l-1.275-20.394c-0.025-0.431 0.319-0.794 0.75-0.794h22.406c0.425 0 0.769 0.362 0.744 0.794z"></path>
</svg>
