<!-- Generated by IcoMoon.io -->
<svg version="1.1" xmlns="http://www.w3.org/2000/svg" width="32" height="32" viewBox="0 0 32 32">
<title>yiwenicon</title>
<path d="M16 1.993c-7.727 0-14.007 6.262-14.007 14.007 0 7.727 6.262 14.007 14.007 14.007s14.007-6.262 14.007-14.007c0-7.727-6.28-14.007-14.007-14.007zM16.6 23.621c-0.282 0.247-0.6 0.388-0.988 0.388s-0.706-0.141-0.988-0.388c-0.282-0.282-0.388-0.6-0.388-0.988s0.106-0.706 0.388-0.953c0.282-0.282 0.6-0.388 0.988-0.388s0.741 0.106 1.005 0.388c0.247 0.247 0.388 0.564 0.388 0.953 0.018 0.406-0.123 0.723-0.406 0.988zM19.899 13.654c-0.229 0.282-0.847 0.864-1.852 1.764-0.512 0.441-0.847 0.847-1.076 1.252-0.3 0.512-0.441 1.058-0.441 1.676v0.529h-1.817v-0.529c0-0.759 0.141-1.411 0.406-1.993 0.318-0.688 1.076-1.552 2.311-2.646 0.37-0.37 0.635-0.635 0.776-0.829 0.459-0.565 0.688-1.164 0.688-1.799 0-0.917-0.282-1.623-0.776-2.135-0.529-0.547-1.288-0.794-2.24-0.794-1.147 0-1.993 0.37-2.54 1.129-0.512 0.635-0.759 1.517-0.759 2.628h-1.817c0-1.605 0.441-2.875 1.358-3.846 0.917-1.005 2.205-1.517 3.846-1.517 1.464 0 2.628 0.388 3.528 1.217 0.847 0.776 1.288 1.852 1.288 3.228-0.018 1.005-0.3 1.905-0.882 2.664z"></path>
</svg>
